<mxfile host="app.diagrams.net" modified="2023-12-28T16:52:48.924Z" agent="Mozilla/5.0 (Macintosh; Intel Mac OS X 10.15; rv:120.0) Gecko/20100101 Firefox/120.0" etag="Of-6zi31XOdrqN4fTrEO" version="22.1.15" type="google">
  <diagram id="C5RBs43oDa-KdzZeNtuy" name="Page-1">
    <mxGraphModel grid="1" page="1" gridSize="10" guides="1" tooltips="1" connect="1" arrows="1" fold="1" pageScale="1" pageWidth="1169" pageHeight="827" math="0" shadow="0">
      <root>
        <mxCell id="WIyWlLk6GJQsqaUBKTNV-0" />
        <mxCell id="WIyWlLk6GJQsqaUBKTNV-1" parent="WIyWlLk6GJQsqaUBKTNV-0" />
        <mxCell id="M7sf1WBETRBUM8MKy9Nu-7" value="" style="edgeStyle=orthogonalEdgeStyle;rounded=0;orthogonalLoop=1;jettySize=auto;html=1;fontStyle=0" edge="1" parent="WIyWlLk6GJQsqaUBKTNV-1" source="M7sf1WBETRBUM8MKy9Nu-2" target="M7sf1WBETRBUM8MKy9Nu-6">
          <mxGeometry relative="1" as="geometry" />
        </mxCell>
        <mxCell id="M7sf1WBETRBUM8MKy9Nu-2" value="Start" style="ellipse;whiteSpace=wrap;html=1;aspect=fixed;fontStyle=1;strokeWidth=4;" vertex="1" parent="WIyWlLk6GJQsqaUBKTNV-1">
          <mxGeometry x="60" y="209" width="80" height="80" as="geometry" />
        </mxCell>
        <mxCell id="M7sf1WBETRBUM8MKy9Nu-28" value="Yes" style="edgeStyle=orthogonalEdgeStyle;rounded=0;orthogonalLoop=1;jettySize=auto;html=1;fontStyle=0;exitX=0.5;exitY=0;exitDx=0;exitDy=0;entryX=0.75;entryY=0;entryDx=0;entryDy=0;" edge="1" parent="WIyWlLk6GJQsqaUBKTNV-1" source="M7sf1WBETRBUM8MKy9Nu-3" target="qDVqrRI6j1tQndP3LX0K-19">
          <mxGeometry x="-0.9786" relative="1" as="geometry">
            <Array as="points">
              <mxPoint x="478" y="100" />
              <mxPoint x="1130" y="100" />
              <mxPoint x="1130" y="560" />
              <mxPoint x="1090" y="560" />
            </Array>
            <mxPoint as="offset" />
            <mxPoint x="1090" y="640" as="targetPoint" />
          </mxGeometry>
        </mxCell>
        <mxCell id="YMX7i0XUj9SskYQzDt-J-4" value="No" style="edgeStyle=orthogonalEdgeStyle;rounded=0;orthogonalLoop=1;jettySize=auto;html=1;" edge="1" parent="WIyWlLk6GJQsqaUBKTNV-1" source="M7sf1WBETRBUM8MKy9Nu-3" target="YMX7i0XUj9SskYQzDt-J-1">
          <mxGeometry x="-0.6585" relative="1" as="geometry">
            <mxPoint as="offset" />
          </mxGeometry>
        </mxCell>
        <mxCell id="M7sf1WBETRBUM8MKy9Nu-3" value="&lt;div style=&quot;font-size: 11px;&quot;&gt;Do you contribute&lt;/div&gt;&lt;div style=&quot;font-size: 11px;&quot;&gt;source code to a&lt;/div&gt;&lt;div style=&quot;font-size: 11px;&quot;&gt;product &lt;u&gt;not&lt;/u&gt; under your own responsibility?&lt;br style=&quot;font-size: 11px;&quot;&gt;(Rec. 10c)&lt;/div&gt;" style="rhombus;whiteSpace=wrap;html=1;fontSize=11;fontStyle=0" vertex="1" parent="WIyWlLk6GJQsqaUBKTNV-1">
          <mxGeometry x="403" y="174" width="150" height="150" as="geometry" />
        </mxCell>
        <mxCell id="M7sf1WBETRBUM8MKy9Nu-4" value="Are you solely&lt;br&gt;hosting or packaging on an open repository?&lt;br&gt;(rec. 10e)" style="rhombus;whiteSpace=wrap;html=1;fontStyle=0;fontColor=#666666;" vertex="1" parent="WIyWlLk6GJQsqaUBKTNV-1">
          <mxGeometry x="442" y="860" width="140" height="140" as="geometry" />
        </mxCell>
        <mxCell id="M7sf1WBETRBUM8MKy9Nu-5" value="&lt;div&gt;Find some other&lt;/div&gt;&lt;div&gt;flow chart&lt;/div&gt;" style="rounded=0;whiteSpace=wrap;html=1;fontStyle=1;strokeWidth=4;strokeColor=#b85450;fillColor=#f8cecc;" vertex="1" parent="WIyWlLk6GJQsqaUBKTNV-1">
          <mxGeometry x="229" y="30" width="120" height="60" as="geometry" />
        </mxCell>
        <mxCell id="M7sf1WBETRBUM8MKy9Nu-8" value="Yes" style="edgeStyle=orthogonalEdgeStyle;rounded=0;orthogonalLoop=1;jettySize=auto;html=1;fontStyle=0" edge="1" parent="WIyWlLk6GJQsqaUBKTNV-1" source="M7sf1WBETRBUM8MKy9Nu-6" target="M7sf1WBETRBUM8MKy9Nu-3">
          <mxGeometry x="-0.7073" relative="1" as="geometry">
            <mxPoint as="offset" />
          </mxGeometry>
        </mxCell>
        <mxCell id="M7sf1WBETRBUM8MKy9Nu-10" value="No" style="rounded=0;orthogonalLoop=1;jettySize=auto;html=1;fontStyle=0;exitX=0.5;exitY=0;exitDx=0;exitDy=0;entryX=0.5;entryY=1;entryDx=0;entryDy=0;edgeStyle=orthogonalEdgeStyle;" edge="1" parent="WIyWlLk6GJQsqaUBKTNV-1" source="M7sf1WBETRBUM8MKy9Nu-6" target="M7sf1WBETRBUM8MKy9Nu-5">
          <mxGeometry x="-0.8133" y="-1" relative="1" as="geometry">
            <mxPoint x="190" y="270" as="targetPoint" />
            <mxPoint as="offset" />
          </mxGeometry>
        </mxCell>
        <mxCell id="M7sf1WBETRBUM8MKy9Nu-6" value="Are you providing&lt;br style=&quot;font-size: 11px;&quot;&gt;&lt;i style=&quot;font-size: 11px;&quot;&gt;&quot;Free and open-source software&quot;&lt;/i&gt;?&lt;br&gt;(Rec. 10c)" style="rhombus;whiteSpace=wrap;html=1;fontSize=11;fontStyle=0" vertex="1" parent="WIyWlLk6GJQsqaUBKTNV-1">
          <mxGeometry x="214" y="174" width="150" height="150" as="geometry" />
        </mxCell>
        <mxCell id="O-5FuEPC8QDrE3NkY1Fo-2" value="Open-source software steward" style="rounded=0;whiteSpace=wrap;html=1;fillColor=#FFCCE6;strokeColor=#FF0080;fontStyle=1;strokeWidth=4;" vertex="1" parent="WIyWlLk6GJQsqaUBKTNV-1">
          <mxGeometry x="747" y="665" width="120" height="60" as="geometry" />
        </mxCell>
        <mxCell id="O-5FuEPC8QDrE3NkY1Fo-9" value="&lt;span style=&quot;font-size: 11px; font-family: &amp;quot;FiraSans&amp;quot;;&quot;&gt;CRA vs FOSS, an attempted reading&lt;br&gt;&lt;/span&gt;&lt;div&gt;&lt;span style=&quot;font-size: 11px; font-family: &amp;quot;FiraSans&amp;quot;;&quot;&gt;version 2023-12-28&lt;/span&gt;&lt;/div&gt;&lt;div&gt;&lt;span style=&quot;font-size: 11px; font-family: &amp;quot;FiraSans&amp;quot;;&quot;&gt;&lt;br&gt;&lt;/span&gt;&lt;/div&gt;&lt;div&gt;&lt;span style=&quot;font-size: 11px; font-family: &amp;quot;FiraSans&amp;quot;;&quot;&gt;source embedded, &lt;/span&gt;&lt;span style=&quot;font-size: 11px; font-family: &amp;quot;FiraSans&amp;quot;;&quot;&gt;&lt;a href=&quot;https://creativecommons.org/publicdomain/zero/1.0/&quot;&gt;CC0 1.0 Universal&lt;/a&gt;&lt;/span&gt;&lt;/div&gt;" style="shape=note;whiteSpace=wrap;html=1;backgroundOutline=1;darkOpacity=0.05;fontStyle=0;fontSize=11;" vertex="1" parent="WIyWlLk6GJQsqaUBKTNV-1">
          <mxGeometry x="692" y="20" width="230" height="70" as="geometry" />
        </mxCell>
        <mxCell id="5jMWU45gTbSRWIbgQp3l-1" value="&quot;software the source code of which is openly shared and the license of which provides for all rights to make it freely accessible, usable, modifiable and redistributable&quot; (Rec. 10c)" style="shape=callout;whiteSpace=wrap;html=1;perimeter=calloutPerimeter;position2=0;size=20;position=0.2;base=36;flipH=1;fontColor=#666666;strokeColor=#666666;" vertex="1" parent="WIyWlLk6GJQsqaUBKTNV-1">
          <mxGeometry x="60" y="104.5" width="180" height="120" as="geometry" />
        </mxCell>
        <mxCell id="qDVqrRI6j1tQndP3LX0K-2" value="No" style="edgeStyle=orthogonalEdgeStyle;rounded=0;orthogonalLoop=1;jettySize=auto;html=1;entryX=0;entryY=0.5;entryDx=0;entryDy=0;" edge="1" parent="WIyWlLk6GJQsqaUBKTNV-1" source="YMX7i0XUj9SskYQzDt-J-1" target="qDVqrRI6j1tQndP3LX0K-0">
          <mxGeometry x="-0.6098" relative="1" as="geometry">
            <mxPoint as="offset" />
          </mxGeometry>
        </mxCell>
        <mxCell id="qDVqrRI6j1tQndP3LX0K-14" value="Yes" style="edgeStyle=orthogonalEdgeStyle;rounded=0;orthogonalLoop=1;jettySize=auto;html=1;exitX=0.5;exitY=1;exitDx=0;exitDy=0;entryX=0.5;entryY=0;entryDx=0;entryDy=0;" edge="1" parent="WIyWlLk6GJQsqaUBKTNV-1" source="YMX7i0XUj9SskYQzDt-J-1" target="qDVqrRI6j1tQndP3LX0K-18">
          <mxGeometry x="-0.9614" relative="1" as="geometry">
            <mxPoint x="60" y="680" as="targetPoint" />
            <Array as="points">
              <mxPoint x="667" y="370" />
              <mxPoint x="420" y="370" />
              <mxPoint x="420" y="620" />
              <mxPoint x="550" y="620" />
            </Array>
            <mxPoint as="offset" />
          </mxGeometry>
        </mxCell>
        <mxCell id="YMX7i0XUj9SskYQzDt-J-1" value="&lt;div&gt;Are you&lt;/div&gt;&lt;div&gt;&lt;i&gt;&quot;monetising&quot;&lt;/i&gt;&lt;/div&gt;&lt;div&gt;this product?&lt;br&gt;(Rec. 10c)&lt;br&gt;&lt;/div&gt;" style="rhombus;whiteSpace=wrap;html=1;fontSize=12;fontStyle=0" vertex="1" parent="WIyWlLk6GJQsqaUBKTNV-1">
          <mxGeometry x="592" y="174" width="150" height="150" as="geometry" />
        </mxCell>
        <mxCell id="qDVqrRI6j1tQndP3LX0K-1" value="No" style="rounded=0;orthogonalLoop=1;jettySize=auto;html=1;endArrow=None;entryX=0.5;entryY=0;entryDx=0;entryDy=0;" edge="1" parent="WIyWlLk6GJQsqaUBKTNV-1" target="qDVqrRI6j1tQndP3LX0K-0">
          <mxGeometry x="0.6243" relative="1" as="geometry">
            <mxPoint x="890" y="370" as="targetPoint" />
            <mxPoint as="offset" />
            <mxPoint x="856" y="100" as="sourcePoint" />
          </mxGeometry>
        </mxCell>
        <mxCell id="qDVqrRI6j1tQndP3LX0K-7" value="Yes" style="edgeStyle=orthogonalEdgeStyle;rounded=0;orthogonalLoop=1;jettySize=auto;html=1;entryX=0;entryY=0.5;entryDx=0;entryDy=0;exitX=1;exitY=0.5;exitDx=0;exitDy=0;" edge="1" parent="WIyWlLk6GJQsqaUBKTNV-1" source="qDVqrRI6j1tQndP3LX0K-0" target="qDVqrRI6j1tQndP3LX0K-6">
          <mxGeometry x="-0.5122" relative="1" as="geometry">
            <mxPoint as="offset" />
          </mxGeometry>
        </mxCell>
        <mxCell id="qDVqrRI6j1tQndP3LX0K-0" value="&lt;div&gt;Are you a&lt;br&gt;&quot;&lt;i&gt;legal person&quot;&lt;/i&gt; (but not&lt;br&gt;a &lt;i&gt;&quot;natural person&quot;)&lt;/i&gt;?&lt;/div&gt;(Rec. 10d)" style="rhombus;whiteSpace=wrap;html=1;fontStyle=0" vertex="1" parent="WIyWlLk6GJQsqaUBKTNV-1">
          <mxGeometry x="781" y="174" width="150" height="150" as="geometry" />
        </mxCell>
        <mxCell id="qDVqrRI6j1tQndP3LX0K-8" value="No" style="rounded=0;orthogonalLoop=1;jettySize=auto;html=1;endArrow=none;exitX=0.5;exitY=0;exitDx=0;exitDy=0;" edge="1" parent="WIyWlLk6GJQsqaUBKTNV-1" source="qDVqrRI6j1tQndP3LX0K-6">
          <mxGeometry x="-0.6216" relative="1" as="geometry">
            <mxPoint x="1045" y="100" as="targetPoint" />
            <mxPoint as="offset" />
          </mxGeometry>
        </mxCell>
        <mxCell id="qDVqrRI6j1tQndP3LX0K-13" value="Yes" style="edgeStyle=orthogonalEdgeStyle;rounded=0;orthogonalLoop=1;jettySize=auto;html=1;exitX=0.5;exitY=1;exitDx=0;exitDy=0;entryX=0.5;entryY=0;entryDx=0;entryDy=0;" edge="1" parent="WIyWlLk6GJQsqaUBKTNV-1" source="qDVqrRI6j1tQndP3LX0K-6" target="qDVqrRI6j1tQndP3LX0K-12">
          <mxGeometry x="-0.9489" relative="1" as="geometry">
            <Array as="points">
              <mxPoint x="1045" y="460" />
              <mxPoint x="807" y="460" />
            </Array>
            <mxPoint as="offset" />
          </mxGeometry>
        </mxCell>
        <mxCell id="qDVqrRI6j1tQndP3LX0K-6" value="&lt;div&gt;Is this product&lt;i&gt;&lt;br&gt;&lt;/i&gt;&lt;/div&gt;&lt;div&gt;&lt;i&gt;&quot;ultimately intended for commercial activities?&quot; &lt;/i&gt;(Rec. 10d)&lt;/div&gt;" style="rhombus;whiteSpace=wrap;html=1;fontStyle=0" vertex="1" parent="WIyWlLk6GJQsqaUBKTNV-1">
          <mxGeometry x="970" y="174" width="150" height="150" as="geometry" />
        </mxCell>
        <mxCell id="qDVqrRI6j1tQndP3LX0K-10" value="&lt;i&gt;&quot;Such as integration into commercial services, or into monetised products&quot;&lt;/i&gt;&lt;br&gt;(Rec. 10d)" style="shape=callout;whiteSpace=wrap;html=1;perimeter=calloutPerimeter;position2=0.66;size=20;position=0.2;base=33;flipH=0;strokeColor=#666666;fontColor=#666666;" vertex="1" parent="WIyWlLk6GJQsqaUBKTNV-1">
          <mxGeometry x="904" y="140" width="130" height="92" as="geometry" />
        </mxCell>
        <mxCell id="qDVqrRI6j1tQndP3LX0K-11" value="This &lt;i&gt;&quot;includes cases where &lt;/i&gt;&lt;i&gt;manufacturers [..]&lt;br&gt;that integrate&quot;&lt;/i&gt; this product &lt;i&gt;&quot;into their own [..] &lt;/i&gt;&lt;i&gt;&lt;br&gt;either contribute to development [..] in a regular manner or &lt;/i&gt;&lt;i&gt;provide regular financial assistance to ensure the continuity&quot;&lt;/i&gt;? (Rec. 10d)" style="shape=callout;whiteSpace=wrap;html=1;perimeter=calloutPerimeter;position2=0.12;size=10;position=0.12;base=18;flipH=1;strokeColor=#666666;fontColor=#666666;flipV=0;direction=south;" vertex="1" parent="WIyWlLk6GJQsqaUBKTNV-1">
          <mxGeometry x="694" y="330" width="340" height="80" as="geometry" />
        </mxCell>
        <mxCell id="qDVqrRI6j1tQndP3LX0K-21" value="No" style="edgeStyle=orthogonalEdgeStyle;rounded=0;orthogonalLoop=1;jettySize=auto;html=1;entryX=0.25;entryY=0;entryDx=0;entryDy=0;exitX=1;exitY=0.5;exitDx=0;exitDy=0;" edge="1" parent="WIyWlLk6GJQsqaUBKTNV-1" source="qDVqrRI6j1tQndP3LX0K-12" target="qDVqrRI6j1tQndP3LX0K-19">
          <mxGeometry x="-0.9368" relative="1" as="geometry">
            <mxPoint as="offset" />
          </mxGeometry>
        </mxCell>
        <mxCell id="qDVqrRI6j1tQndP3LX0K-22" value="Yes" style="edgeStyle=orthogonalEdgeStyle;rounded=0;orthogonalLoop=1;jettySize=auto;html=1;entryX=0.5;entryY=0;entryDx=0;entryDy=0;exitX=0.5;exitY=1;exitDx=0;exitDy=0;" edge="1" parent="WIyWlLk6GJQsqaUBKTNV-1" source="qDVqrRI6j1tQndP3LX0K-12" target="O-5FuEPC8QDrE3NkY1Fo-2">
          <mxGeometry x="-0.6667" relative="1" as="geometry">
            <mxPoint as="offset" />
          </mxGeometry>
        </mxCell>
        <mxCell id="qDVqrRI6j1tQndP3LX0K-12" value="&lt;div&gt;Do&lt;/div&gt;&lt;div&gt;you provide&lt;/div&gt;&lt;div&gt;&lt;i&gt;&quot;support on a sus-&lt;br&gt;tained basis &lt;/i&gt;&lt;i&gt;for the devel-opment of specific&lt;/i&gt;&lt;/div&gt;&lt;div&gt;&lt;i&gt;products&quot; &lt;/i&gt;?&lt;/div&gt;(Art. 3(18a))" style="rhombus;whiteSpace=wrap;html=1;fontStyle=0" vertex="1" parent="WIyWlLk6GJQsqaUBKTNV-1">
          <mxGeometry x="732" y="485" width="150" height="150" as="geometry" />
        </mxCell>
        <mxCell id="qDVqrRI6j1tQndP3LX0K-17" value="This &lt;i&gt;&quot;includes but is not limited to &lt;br&gt;the hosting and managing of software development collaboration platforms, the hosting of source code or software, &lt;br&gt;the governing or managing of free and open-source software products [..] as well as the steering of the development of such products&quot;&lt;/i&gt;? (Rec. 10d)" style="shape=callout;whiteSpace=wrap;html=1;perimeter=calloutPerimeter;position2=0.22;size=40;position=0.22;base=14;flipH=0;strokeColor=#666666;fontColor=#666666;direction=north;flipV=0;" vertex="1" parent="WIyWlLk6GJQsqaUBKTNV-1">
          <mxGeometry x="442" y="446" width="310" height="135" as="geometry" />
        </mxCell>
        <mxCell id="qDVqrRI6j1tQndP3LX0K-18" value="Manufacturer" style="rounded=0;whiteSpace=wrap;html=1;fillColor=#e1d5e7;strokeColor=#9673a6;fontStyle=1;strokeWidth=4;" vertex="1" parent="WIyWlLk6GJQsqaUBKTNV-1">
          <mxGeometry x="490" y="665" width="120" height="60" as="geometry" />
        </mxCell>
        <mxCell id="qDVqrRI6j1tQndP3LX0K-19" value="Outside CRA scope" style="rounded=0;whiteSpace=wrap;html=1;fillColor=#dae8fc;strokeColor=#6c8ebf;fontStyle=1;strokeWidth=4;" vertex="1" parent="WIyWlLk6GJQsqaUBKTNV-1">
          <mxGeometry x="1000" y="665" width="120" height="60" as="geometry" />
        </mxCell>
        <mxCell id="Oo6hoeQL0YoFuAVZFtNi-2" value="&lt;div&gt;&lt;i&gt;&quot;The supply in the course of a commercial activity might be characterized not only&quot; &lt;/i&gt;&lt;/div&gt;&lt;div&gt;&lt;br&gt;&lt;/div&gt;&lt;div&gt;&lt;b&gt;I&lt;/b&gt;&lt;/div&gt;&lt;div&gt;&lt;i&gt;&quot;by charging a price for a product, but also&quot;&lt;/i&gt; &lt;br&gt;&lt;/div&gt;&lt;div&gt;&lt;br&gt;&lt;/div&gt;&lt;div&gt;&lt;b&gt;II&lt;/b&gt;&lt;/div&gt;&lt;div&gt;&lt;i&gt;&quot;by charging a price for technical support services when this does not serve only the recuperation of actual costs, or&quot;&lt;/i&gt;&lt;/div&gt;&lt;div&gt;&lt;br&gt;&lt;/div&gt;&lt;div&gt;&lt;b&gt;III&lt;/b&gt;&lt;i&gt;&lt;br&gt;&lt;/i&gt;&lt;/div&gt;&lt;div&gt;&lt;i&gt;&quot;by an intention to monetise, for instance&quot;&lt;/i&gt; &lt;br&gt;&lt;/div&gt;&lt;div&gt;&amp;nbsp; &lt;b&gt;a) &lt;/b&gt;&lt;i&gt;&quot;by providing a software platform through which the manufacturer monetises other services,&quot;&lt;/i&gt; &lt;br&gt;&lt;/div&gt;&lt;div&gt;&amp;nbsp;&lt;b&gt; b) &lt;/b&gt;&lt;i&gt;&quot;by requiring as a condition for use the processing of personal data for reasons other than exclusively for improving the security, compatibility or interoperability of the software, or&quot;&lt;/i&gt; &lt;br&gt;&lt;/div&gt;&lt;div&gt;&amp;nbsp; &lt;b&gt;c) &lt;/b&gt;&lt;i&gt;&quot;by accepting donations exceeding the costs associated with the design, development and provision of a product with digital elements. Accepting donations without the intention of making a profit should not be considered to be a commercial activity.&quot;&lt;/i&gt;&lt;/div&gt;&lt;div&gt;&lt;i&gt;&lt;br&gt;&lt;/i&gt;&lt;/div&gt;(Rec. 10, numbering in bold added for readability)&lt;i&gt;&lt;br&gt;&lt;/i&gt;" style="shape=callout;whiteSpace=wrap;html=1;perimeter=calloutPerimeter;direction=north;align=center;fontColor=#666666;strokeColor=#666666;position2=0.86;base=21;size=20;position=0.89;" vertex="1" parent="WIyWlLk6GJQsqaUBKTNV-1">
          <mxGeometry x="40" y="370" width="380" height="358" as="geometry" />
        </mxCell>
      </root>
    </mxGraphModel>
  </diagram>
</mxfile>
